<?xml version="1.0" encoding="UTF-8" standalone="no"?>
<svg
   xmlns:dc="http://purl.org/dc/elements/1.1/"
   xmlns:cc="http://creativecommons.org/ns#"
   xmlns:rdf="http://www.w3.org/1999/02/22-rdf-syntax-ns#"
   xmlns:svg="http://www.w3.org/2000/svg"
   xmlns="http://www.w3.org/2000/svg"
   xmlns:sodipodi="http://sodipodi.sourceforge.net/DTD/sodipodi-0.dtd"
   xmlns:inkscape="http://www.inkscape.org/namespaces/inkscape"
   inkscape:version="1.0 (4035a4fb49, 2020-05-01)"
   sodipodi:docname="logo.svg"
   id="svg8"
   version="1.1"
   viewBox="0 0 50.87019 9.5941257"
   height="9.5941257mm"
   width="50.87019mm">
  <defs
     id="defs2" />
  <sodipodi:namedview
     inkscape:window-maximized="0"
     inkscape:window-y="0"
     inkscape:window-x="26"
     inkscape:window-height="1040"
     inkscape:window-width="1518"
     showgrid="false"
     inkscape:document-rotation="0"
     inkscape:current-layer="text12"
     inkscape:document-units="mm"
     inkscape:cy="122.14938"
     inkscape:cx="-25.325698"
     inkscape:zoom="0.49497475"
     inkscape:pageshadow="2"
     inkscape:pageopacity="0.0"
     borderopacity="1.0"
     bordercolor="#666666"
     pagecolor="#ffffff"
     id="base" />
  <metadata
     id="metadata5">
    <rdf:RDF>
      <cc:Work
         rdf:about="">
        <dc:format>image/svg+xml</dc:format>
        <dc:type
           rdf:resource="http://purl.org/dc/dcmitype/StillImage" />
      </cc:Work>
    </rdf:RDF>
  </metadata>
  <g
     transform="translate(-32.254651,-142.63311)"
     id="layer1"
     inkscape:groupmode="layer"
     inkscape:label="Layer 1">
    <g
       style="font-size:5.73442px;line-height:1.25;font-family:lexend;-inkscape-font-specification:lexend;stroke-width:0.14336"
       id="text12"
       aria-label="WorldListener">
      <path
         id="path75"
         style="fill:#4d4d4d;stroke-width:0.14336"
         d="m 44.587298,150.1057 -1.232901,-4.0141 h 0.848695 l 0.676661,2.27657 q 0.04014,0.13189 0.06881,0.28098 0.02867,0.1491 0.05734,0.28673 0.04014,-0.18924 0.06881,-0.3154 0.03441,-0.13189 0.07455,-0.25231 l 0.647989,-1.68019 h 0.688131 l 0.630786,1.68019 q 0.05734,0.14336 0.09175,0.27525 0.04014,0.12616 0.07455,0.25232 0.01147,-0.10322 0.03441,-0.21791 0.02294,-0.11469 0.08028,-0.32113 l 0.665193,-2.2651 h 0.84296 l -1.2329,4.0141 h -0.613583 l -0.951914,-2.2823 -0.900304,2.2823 z" />
      <path
         id="path77"
         style="fill:#4d4d4d;stroke-width:0.14336"
         d="m 50.647146,150.16304 q -0.464488,0 -0.825757,-0.2007 -0.361268,-0.20644 -0.567707,-0.56198 -0.206439,-0.35553 -0.206439,-0.81428 0,-0.45302 0.206439,-0.80856 0.206439,-0.35553 0.567707,-0.55624 0.361269,-0.20643 0.825757,-0.20643 0.453019,0 0.814287,0.20643 0.361269,0.20071 0.567708,0.55624 0.206439,0.35554 0.206439,0.80856 0,0.45875 -0.206439,0.81428 -0.206439,0.35554 -0.567708,0.56198 -0.361268,0.2007 -0.814287,0.2007 z m 0,-0.68239 q 0.229377,0 0.412878,-0.11469 0.183502,-0.12043 0.280987,-0.32113 0.103219,-0.2007 0.103219,-0.45875 0,-0.25805 -0.103219,-0.45876 -0.09748,-0.2007 -0.280987,-0.31539 -0.183501,-0.11469 -0.412878,-0.11469 -0.235111,0 -0.418613,0.11469 -0.183501,0.11469 -0.286721,0.31539 -0.103219,0.20071 -0.103219,0.45876 0,0.25805 0.103219,0.45875 0.10322,0.2007 0.286721,0.32113 0.183502,0.11469 0.418613,0.11469 z" />
      <path
         id="path79"
         style="fill:#4d4d4d;stroke-width:0.14336"
         d="m 52.859825,150.1057 v -3.02778 h 0.756944 l 0.01147,0.4989 q 0.149095,-0.24658 0.38994,-0.40141 0.24658,-0.16056 0.516098,-0.16056 0.103219,0 0.189236,0.0172 0.09175,0.0115 0.154829,0.0344 l -0.212173,0.86016 q -0.06308,-0.0344 -0.160564,-0.0574 -0.09748,-0.0229 -0.19497,-0.0229 -0.280987,0 -0.475957,0.19497 -0.189236,0.18923 -0.189236,0.48169 v 1.5827 z" />
      <path
         id="path81"
         style="fill:#4d4d4d;stroke-width:0.14336"
         d="m 55.357703,150.1057 v -4.24347 h 0.779881 v 4.24347 z" />
      <path
         id="path83"
         style="fill:#4d4d4d;stroke-width:0.14336"
         d="m 58.101533,150.16304 q -0.401409,0 -0.716803,-0.2007 -0.315393,-0.20644 -0.498894,-0.56198 -0.177767,-0.35553 -0.177767,-0.80855 0,-0.45875 0.177767,-0.81429 0.183501,-0.35553 0.498894,-0.55624 0.315394,-0.20643 0.716803,-0.20643 0.275252,0 0.521832,0.10895 0.252315,0.10895 0.407144,0.28099 v -1.54256 h 0.785615 v 4.24347 H 59.07065 l -0.01147,-0.36127 q -0.149095,0.17777 -0.407144,0.29819 -0.258049,0.12042 -0.550504,0.12042 z m 0.172033,-0.65372 q 0.349799,0 0.567707,-0.25232 0.217908,-0.25805 0.217908,-0.66519 0,-0.41288 -0.217908,-0.66519 -0.217908,-0.25805 -0.567707,-0.25805 -0.3498,0 -0.567708,0.25805 -0.217908,0.25231 -0.217908,0.66519 0,0.40714 0.217908,0.66519 0.217908,0.25232 0.567708,0.25232 z" />
      <path
         id="path85"
         style="fill:#4d4d4d;stroke-width:0.14336"
         d="m 60.730676,150.1057 v -4.0141 h 0.825757 v 3.26289 h 1.82928 v 0.75121 z" />
      <path
         id="path87"
         style="fill:#4d4d4d;stroke-width:0.14336"
         d="m 64.558222,146.44714 q -0.229377,0 -0.361268,-0.11469 -0.126158,-0.11469 -0.126158,-0.31539 0,-0.19497 0.126158,-0.3154 0.131891,-0.12042 0.361268,-0.12042 0.229377,0 0.355534,0.11469 0.126157,0.11469 0.126157,0.32113 0,0.18923 -0.131891,0.30965 -0.126158,0.12043 -0.3498,0.12043 z m -0.389941,3.65856 v -3.02778 h 0.785616 v 3.02778 z" />
      <path
         id="path89"
         style="fill:#4d4d4d;stroke-width:0.14336"
         d="m 66.850198,150.16304 q -0.418613,0 -0.745475,-0.13762 -0.326862,-0.13763 -0.527567,-0.38994 l 0.49316,-0.41862 q 0.172033,0.18924 0.389941,0.27525 0.217908,0.0803 0.44155,0.0803 0.177767,0 0.286721,-0.0803 0.108954,-0.0803 0.108954,-0.22364 0,-0.12615 -0.103219,-0.2007 -0.10322,-0.0688 -0.49316,-0.17203 -0.579177,-0.1491 -0.820022,-0.40715 -0.212174,-0.22938 -0.212174,-0.56771 0,-0.26951 0.160564,-0.47022 0.160564,-0.20644 0.424347,-0.32113 0.263783,-0.11468 0.573442,-0.11468 0.355534,0 0.670927,0.12615 0.315393,0.12616 0.527567,0.34407 l -0.424347,0.46449 q -0.160564,-0.1491 -0.372738,-0.24658 -0.206439,-0.10322 -0.384206,-0.10322 -0.412878,0 -0.412878,0.28672 0.0057,0.13762 0.126157,0.21791 0.114689,0.0803 0.521832,0.18923 0.54477,0.14336 0.768413,0.37847 0.19497,0.20071 0.19497,0.5333 0,0.27526 -0.160564,0.49316 -0.154829,0.21791 -0.424347,0.34407 -0.269518,0.12042 -0.607848,0.12042 z" />
      <path
         id="path91"
         style="fill:#4d4d4d;stroke-width:0.14336"
         d="m 68.933404,150.1057 v -2.32244 h -0.573442 v -0.70534 h 0.573442 v -0.77414 h 0.779881 v 0.77414 h 0.636521 v 0.70534 h -0.636521 v 2.32244 z" />
      <path
         id="path93"
         style="fill:#4d4d4d;stroke-width:0.14336"
         d="m 72.280694,150.16304 q -0.487426,0 -0.854429,-0.2007 -0.367002,-0.20071 -0.573442,-0.55051 -0.200704,-0.3498 -0.200704,-0.80282 0,-0.47022 0.19497,-0.82575 0.200705,-0.36127 0.54477,-0.56771 0.3498,-0.20644 0.802819,-0.20644 0.407143,0 0.728271,0.20071 0.326862,0.19497 0.504629,0.5333 0.183501,0.33833 0.172033,0.77414 l -0.0057,0.24658 h -2.179079 q 0.06308,0.32687 0.309658,0.5161 0.252315,0.18924 0.636521,0.18924 0.206439,0 0.372737,-0.0631 0.172033,-0.0631 0.367003,-0.22364 l 0.378472,0.52756 q -0.24658,0.21791 -0.567708,0.33833 -0.315393,0.11469 -0.630786,0.11469 z m -0.08028,-2.47727 q -0.647989,0 -0.779881,0.58491 h 1.433605 v -0.0229 q -0.0172,-0.24658 -0.206439,-0.40141 -0.183502,-0.16057 -0.447285,-0.16057 z" />
      <path
         id="path95"
         style="fill:#4d4d4d;stroke-width:0.14336"
         d="m 74.207099,150.1057 v -3.02778 h 0.756944 l 0.01147,0.40715 q 0.15483,-0.20644 0.412879,-0.33833 0.258049,-0.13189 0.539035,-0.13189 1.043665,0 1.043665,1.23863 v 1.85222 H 76.19121 v -1.79488 q 0,-0.64799 -0.544769,-0.62505 -0.280987,0 -0.470223,0.17204 -0.183501,0.17203 -0.183501,0.42434 v 1.82355 z" />
      <path
         id="path97"
         style="fill:#4d4d4d;stroke-width:0.14336"
         d="m 79.179917,150.16304 q -0.487425,0 -0.854428,-0.2007 -0.367003,-0.20071 -0.573442,-0.55051 -0.200705,-0.3498 -0.200705,-0.80282 0,-0.47022 0.19497,-0.82575 0.200705,-0.36127 0.54477,-0.56771 0.3498,-0.20644 0.802819,-0.20644 0.407144,0 0.728271,0.20071 0.326862,0.19497 0.504629,0.5333 0.183502,0.33833 0.172033,0.77414 l -0.0057,0.24658 H 78.31402 q 0.06308,0.32687 0.309659,0.5161 0.252314,0.18924 0.63652,0.18924 0.206439,0 0.372737,-0.0631 0.172033,-0.0631 0.367003,-0.22364 l 0.378472,0.52756 q -0.24658,0.21791 -0.567708,0.33833 -0.315393,0.11469 -0.630786,0.11469 z m -0.08028,-2.47727 q -0.647989,0 -0.779881,0.58491 h 1.433605 v -0.0229 q -0.0172,-0.24658 -0.206439,-0.40141 -0.183501,-0.16057 -0.447285,-0.16057 z" />
      <path
         id="path99"
         style="fill:#4d4d4d;stroke-width:0.14336"
         d="m 81.106324,150.1057 v -3.02778 h 0.756944 l 0.01147,0.4989 q 0.149095,-0.24658 0.38994,-0.40141 0.24658,-0.16056 0.516098,-0.16056 0.10322,0 0.189236,0.0172 0.09175,0.0115 0.154829,0.0344 l -0.212173,0.86016 q -0.06308,-0.0344 -0.160564,-0.0574 -0.09749,-0.0229 -0.19497,-0.0229 -0.280987,0 -0.475957,0.19497 -0.189236,0.18923 -0.189236,0.48169 v 1.5827 z" />
    </g>
    <g
       transform="matrix(0.26458333,0,0,0.26458333,31.758945,142.13702)"
       id="g73"
       style="fill:none">
      <path
         d="m 38.125,19.8876 c 0.0244,3.1666 -0.7852,6.2838 -2.3476,9.0383 -0.2024,0.3578 -0.4167,0.7078 -0.643,1.05 -0.1119,0.1739 -0.2572,0.3239 -0.4275,0.4412 -0.1702,0.1174 -0.3621,0.1998 -0.5645,0.2424 -0.2024,0.0426 -0.4112,0.0446 -0.6143,0.006 -0.2032,-0.0387 -0.3966,-0.1173 -0.5692,-0.2314 -0.1725,-0.114 -0.3207,-0.2611 -0.4359,-0.4328 -0.1153,-0.1717 -0.1953,-0.3646 -0.2355,-0.5675 -0.0401,-0.2028 -0.0396,-0.4116 0.0016,-0.6143 0.0412,-0.2027 0.1222,-0.3951 0.2383,-0.5663 1.4911,-2.2635 2.3411,-4.8888 2.4596,-7.5968 0.1184,-2.708 -0.4991,-5.3975 -1.7869,-7.7826 C 31.9123,10.4887 30.0022,8.49708 27.673,7.11069 25.3438,5.7243 22.6825,4.99493 19.9719,5.0001 14.7618,5.01026 10.1422,7.74541 7.45706,11.8321 5.85189,14.2703 4.99772,17.1259 5.0005,20.045 c 0.00277,2.9191 0.86238,5.7732 2.47219,8.2082 0.22823,0.3459 0.3097,0.7684 0.22648,1.1743 -0.08322,0.406 -0.32431,0.7623 -0.67023,0.9906 C 6.68302,30.6463 6.2606,30.7278 5.85461,30.6445 5.44863,30.5613 5.09233,30.3202 4.8641,29.9743 3.0791,27.2655 2.05381,24.1272 1.89521,20.887 1.73662,17.6468 2.45053,14.4235 3.96245,11.5533 5.47437,8.68306 7.72889,6.27121 10.4907,4.56941 13.2526,2.86761 16.4206,1.93822 19.6641,1.87822 19.7782,1.87588 19.8914,1.8751 20.0047,1.8751 c 4.7902,-0.00987 9.3886,1.88127 12.7858,5.25831 3.3973,3.37709 5.3158,7.96409 5.3345,12.75419 z"
         fill="#494d4b"
         id="path30" />
      <path
         d="m 9.06588,22.7944 2.83192,14.0875 c 0.17,0.8457 0.9933,1.3934 1.839,1.2234 0.8457,-0.17 1.3935,-0.9934 1.2235,-1.839 L 12.1284,22.1788 c -0.17,-0.8457 -0.9934,-1.3935 -1.8391,-1.2235 -0.84567,0.17 -1.39342,0.9934 -1.22342,1.8391 z"
         fill="#04d361"
         id="path32" />
      <path
         d="m 11.8438,36.5641 -0.718,0.1445 C 10.059,36.9234 8.95038,36.7225 8.02677,36.147 7.10316,35.5715 6.43432,34.6648 6.15706,33.6125 6.13597,33.5313 6.11644,33.45 6.10003,33.3672 L 5.07112,28.2555 C 4.84815,27.1459 5.07485,25.9931 5.70141,25.0506 6.32796,24.108 7.3031,23.4528 8.41253,23.2289 l 0.71797,-0.1445 1.2594,6.2562 z"
         fill="#494d4b"
         id="path34" />
      <path
         d="m 11.8438,36.5641 -0.7179,0.1445 C 10.059,36.9234 8.95043,36.7225 8.02682,36.147 7.1032,35.5715 6.43437,34.6649 6.1571,33.6125 7.67448,32.2981 9.08951,30.87 10.3899,29.3407 Z"
         fill="#494d4b"
         id="path36" />
      <path
         d="m 36.1477,27.0875 -0.3703,1.8383 c -0.2024,0.3578 -0.4167,0.7078 -0.643,1.05 -0.1119,0.1739 -0.2572,0.3239 -0.4275,0.4413 -0.1703,0.1173 -0.3621,0.1997 -0.5645,0.2423 -0.2024,0.0426 -0.4112,0.0447 -0.6143,0.006 -0.2032,-0.0387 -0.3966,-0.1173 -0.5692,-0.2313 -0.1725,-0.114 -0.3207,-0.2612 -0.436,-0.4329 -0.1152,-0.1717 -0.1952,-0.3646 -0.2354,-0.5674 -0.0401,-0.2029 -0.0396,-0.4117 0.0016,-0.6144 0.0412,-0.2027 0.1221,-0.3951 0.2383,-0.5663 1.0591,-1.6029 1.7984,-3.3954 2.1773,-5.2789 0.588,0.4926 1.0324,1.1347 1.2863,1.8585 0.254,0.7239 0.3081,1.5028 0.1567,2.2548 z"
         fill="#494d4b"
         id="path38" />
      <path
         d="M 34.2953,8.82971 32.0539,11.0711 C 30.6573,9.1825 28.836,7.64891 26.7371,6.59426 24.6383,5.53962 22.3208,4.99349 19.9719,5.00002 14.7617,5.01017 10.1422,7.74533 7.45703,11.832 L 5.18359,9.55861 C 6.82274,7.22938 8.98843,5.31984 11.5046,3.98527 c 2.5161,-1.33458 5.3117,-2.05652 8.1595,-2.10713 0.114,-0.00234 0.2273,-0.00312 0.3406,-0.00312 2.7544,-0.00617 5.4739,0.61721 7.9506,1.82254 2.4768,1.20534 4.6453,2.96074 6.34,5.13215 z"
         fill="#8257e5"
         id="path40" />
      <path
         d="M 27.8464,22.1635 25.0145,36.251 c -0.17,0.8457 0.3777,1.6691 1.2234,1.8391 0.8457,0.17 1.6691,-0.3778 1.8391,-1.2235 l 2.8319,-14.0875 c 0.17,-0.8456 -0.3778,-1.669 -1.2235,-1.839 -0.8457,-0.17 -1.669,0.3777 -1.839,1.2234 z"
         fill="#04d361"
         id="path42" />
      <path
         d="M 34.9289,28.2555 33.9,33.3672 c -0.2234,1.1095 -0.8784,2.0849 -1.8209,2.7115 -0.9425,0.6267 -2.0953,0.8532 -3.2049,0.6299 l -0.718,-0.1445 0.7438,-3.693 1.9695,-9.7867 0.718,0.1445 c 1.1093,0.2242 2.0845,0.8791 2.7117,1.8211 0.0864,0.1299 0.1654,0.2644 0.2367,0.4031 0.4458,0.8623 0.5844,1.8507 0.393,2.8024 z"
         fill="#494d4b"
         id="path44" />
      <path
         d="M 34.9289,28.2555 33.9,33.3672 c -0.2234,1.1096 -0.8784,2.0849 -1.8209,2.7116 -0.9425,0.6266 -2.0953,0.8532 -3.2049,0.6298 l -0.718,-0.1445 0.7438,-3.693 c 2.1403,-2.2625 4.0299,-4.7496 5.6359,-7.418 0.4458,0.8623 0.5844,1.8508 0.393,2.8024 z"
         fill="#494d4b"
         id="path46" />
    </g>
  </g>
</svg>
